# xmcd CD database file
#
# Track frame offsets:
#	150
#	22524
#	36574
#	50892
#	72928
#	93094
#	111153
#	128626
#	154546
#	182392
#	204895
#	222114
#
# Disc length: 3285 seconds
#
# Revision: 0
# Processed by: cddbd v1.5.1PL0 Copyright (c) Steve Scherf et al.
# Submitted via: CDex 1.51
#
DISCID=950cd30c
DTITLE=Various Artist - Now That's What I Call Blues
DYEAR=2005
DGENRE=Blues
TTITLE0=Charlie Musslewhite/Mighty Fine Cruisin
TTITLE1=Monster Mike Welch/Cadillac Blues
TTITLE2=Chaz De Paolo with Groundhogs RS
TTITLE3=Ottomatic Slim/I Want To Be Loved
TTITLE4=Ottomatic Slim/Playin' On Me
TTITLE5=Ottomatic Slim/Brick
TTITLE6=Pinetops Perkins/Worried Life Blues
TTITLE7=Pinetops Perkins/Four Hand Strut
TTITLE8=Pinetops Perkins/Down In Mississippi
TTITLE9=David Maxwell/Long Distance Driver
TTITLE10=David Maxwell/Hip House Rock
TTITLE11=Eddie Kirkland/What You Got On Your Mind
EXTD=YEAR: 2005
EXTT0=
EXTT1=
EXTT2=
EXTT3=
EXTT4=
EXTT5=
EXTT6=
EXTT7=
EXTT8=
EXTT9=
EXTT10=
EXTT11=
PLAYORDER=
